<?xml version="1.0" encoding="utf-8"?>
<!-- Generator: Adobe Illustrator 16.0.0, SVG Export Plug-In . SVG Version: 6.00 Build 0)  -->
<!DOCTYPE svg PUBLIC "-//W3C//DTD SVG 1.1//EN" "http://www.w3.org/Graphics/SVG/1.1/DTD/svg11.dtd">
<svg version="1.1" id="Layer_1" xmlns="http://www.w3.org/2000/svg" xmlns:xlink="http://www.w3.org/1999/xlink" x="0px" y="0px"
	 width="531.169px" height="134.766px" viewBox="0 0 531.169 134.766" enable-background="new 0 0 531.169 134.766"
	 xml:space="preserve">
<path fill="#034EA2" d="M60.969,111.613L79.993,70.82l19.023,40.793l-19.023-10.981L60.969,111.613z M109.575,83.552l19.023-10.981
	l-44.841-3.923l25.818,36.87V83.552z M109.575,49.393V27.428L83.757,64.299l44.841-3.923L109.575,49.393z M79.993,32.315
	L60.969,21.332l19.023,40.795l19.023-40.795L79.993,32.315z M50.41,49.393L31.387,60.376l44.84,3.923L50.41,27.428V49.393z
	 M50.41,83.552v21.965l25.817-36.87l-44.84,3.923L50.41,83.552z"/>
<g>
	<defs>
		<rect id="SVGID_1_" x="-24.635" y="-30.891" width="578.674" height="189.026"/>
	</defs>
	<clipPath id="SVGID_2_">
		<use xlink:href="#SVGID_1_"  overflow="visible"/>
	</clipPath>
	<path clip-path="url(#SVGID_2_)" fill="#034EA2" d="M348.287,32.29h37.209c2.197,0,4.213,1.232,5.209,3.19
		c11.209,21.923,22.416,43.849,33.625,65.775c1.992,3.894-0.84,8.516-5.213,8.516h-26.488c-1.9-4.336-3.801-8.67-5.705-13.007
		h-40.145l-4.453,9.616c-0.961,2.069-3.031,3.391-5.312,3.391H308.68C321.881,83.944,335.086,58.116,348.287,32.29 M354.639,79.818
		h24.645l-12.055-27.079L354.639,79.818z M236.042,109.771h68.789V96.676c0-3.234-2.619-5.852-5.852-5.852h-30.076V38.144
		c0-3.231-2.621-5.854-5.854-5.854h-27.007V109.771z M428.818,109.771V32.29h55.701c10.682-0.18,19.033,1.213,25.051,4.189
		c6.023,2.971,9.086,8.61,9.189,16.914c-0.094,5.09-1.676,9.189-4.746,12.289c-3.07,3.104-7.064,5.093-11.982,5.967v1.068
		c3.828,0.049,7.109,0.884,9.838,2.498c2.729,1.619,4.455,4.357,5.172,8.218c1.4,8.779,2.801,17.557,4.201,26.338h-32.617
		c-0.896-5.84-1.793-11.681-2.691-17.523c-0.555-4.694-1.705-7.738-3.453-9.129c-1.75-1.391-5.346-2.011-10.797-1.861h-10.002
		v22.662c0,3.234-2.621,5.852-5.855,5.852H428.818z M461.682,47.736v18.574h12.615c3.615,0.06,6.582-0.595,8.904-1.977
		c2.322-1.377,3.521-3.852,3.602-7.417c-0.039-3.373-1.207-5.755-3.508-7.15c-2.297-1.398-5.479-2.074-9.545-2.03H461.682z
		 M156.639,109.771H189.5V80.731h36.902V70.186c0-3.233-2.623-5.854-5.853-5.854H189.5V48.714h38.843V38.169
		c0-3.234-2.622-5.854-5.855-5.854h-65.849V109.771z"/>
	<polygon clip-path="url(#SVGID_2_)" fill="#034EA2" points="156.639,114.87 164.051,114.87 164.051,116.056 158.142,116.056 
		158.142,119.462 163.763,119.462 163.763,120.647 158.142,120.647 158.142,125.303 156.639,125.303 	"/>
	<path clip-path="url(#SVGID_2_)" fill="#034EA2" d="M171.754,114.596c4.376,0,5.864,3.005,5.864,5.489s-1.488,5.492-5.864,5.492
		c-4.379,0-5.867-3.008-5.867-5.492S167.375,114.596,171.754,114.596 M171.754,124.392c2.528,0,4.277-1.734,4.277-4.307
		c0-2.571-1.75-4.307-4.277-4.307c-2.527,0-4.277,1.735-4.277,4.307C167.477,122.657,169.227,124.392,171.754,124.392"/>
	<polygon clip-path="url(#SVGID_2_)" fill="#034EA2" points="188.656,114.87 190.158,114.87 190.158,125.303 188.107,125.303 
		181.722,116.399 181.693,116.399 181.693,125.303 180.191,125.303 180.191,114.87 182.241,114.87 188.627,123.769 188.656,123.769 
			"/>
	<path clip-path="url(#SVGID_2_)" fill="#034EA2" d="M193.208,114.87h4.061c4.636,0,6.211,1.936,6.211,5.344
		c0,3.206-1.951,5.089-5.995,5.089h-4.277V114.87z M194.711,124.117h2.831c3.439,0,4.349-1.995,4.349-4.03
		c0-2.705-1.212-4.031-4.71-4.031h-2.47V124.117z"/>
	<path clip-path="url(#SVGID_2_)" fill="#034EA2" d="M211.495,114.596c4.379,0,5.868,3.005,5.868,5.489s-1.489,5.492-5.868,5.492
		c-4.375,0-5.864-3.008-5.864-5.492S207.12,114.596,211.495,114.596 M211.495,124.392c2.528,0,4.275-1.734,4.275-4.307
		c0-2.571-1.747-4.307-4.275-4.307c-2.526,0-4.274,1.735-4.274,4.307C207.221,122.657,208.969,124.392,211.495,124.392"/>
	<polygon clip-path="url(#SVGID_2_)" fill="#034EA2" points="225.543,114.87 227.045,114.87 227.045,124.117 233.056,124.117 
		233.056,125.303 225.543,125.303 	"/>
	<path clip-path="url(#SVGID_2_)" fill="#034EA2" d="M243.781,122.585h-6.4l-1.344,2.715h-1.677l5.361-10.43h1.762l5.362,10.43
		h-1.72L243.781,122.585z M243.203,121.399l-2.601-5.259l-2.615,5.259H243.203z"/>
	<polygon clip-path="url(#SVGID_2_)" fill="#034EA2" points="250.227,116.141 245.806,116.141 245.806,114.87 256.15,114.87 
		256.15,116.141 251.73,116.141 251.73,125.3 250.227,125.3 	"/>
	<rect x="257.961" y="114.868" clip-path="url(#SVGID_2_)" fill="#034EA2" width="1.502" height="10.432"/>
	<polygon clip-path="url(#SVGID_2_)" fill="#034EA2" points="270.902,114.87 272.404,114.87 272.404,125.303 270.35,125.303 
		263.967,116.399 263.938,116.399 263.938,125.303 262.436,125.303 262.436,114.87 264.486,114.87 270.871,123.769 270.902,123.769 
			"/>
	<path clip-path="url(#SVGID_2_)" fill="#034EA2" d="M280.832,114.596c4.379,0,5.867,3.005,5.867,5.489s-1.488,5.492-5.867,5.492
		c-4.377,0-5.863-3.008-5.863-5.492S276.455,114.596,280.832,114.596 M280.832,124.392c2.527,0,4.277-1.734,4.277-4.307
		c0-2.571-1.75-4.307-4.277-4.307c-2.529,0-4.275,1.735-4.275,4.307C276.557,122.657,278.303,124.392,280.832,124.392"/>
	<path clip-path="url(#SVGID_2_)" fill="#034EA2" d="M296.881,122.585h-6.4l-1.346,2.715h-1.674l5.359-10.43h1.762l5.361,10.43
		h-1.719L296.881,122.585z M296.303,121.399l-2.602-5.259l-2.615,5.259H296.303z"/>
	<polygon clip-path="url(#SVGID_2_)" fill="#034EA2" points="303.381,115.938 303.352,115.938 303.352,125.3 301.846,125.3 
		301.846,114.87 304.248,114.87 308.84,124.029 313.434,114.87 315.832,114.87 315.832,125.3 314.332,125.3 314.332,115.938 
		314.299,115.938 309.635,125.3 308.047,125.3 	"/>
	<polygon clip-path="url(#SVGID_2_)" fill="#034EA2" points="319.004,114.87 326.807,114.87 326.807,116.056 320.506,116.056 
		320.506,119.347 326.4,119.347 326.4,120.532 320.506,120.532 320.506,124.117 326.98,124.117 326.98,125.303 319.004,125.303 	"/>
	<path clip-path="url(#SVGID_2_)" fill="#034EA2" d="M330.852,125.3h-1.504v-10.43h5.129c3.223,0,3.943,1.084,3.943,2.759
		c0,1.272-0.924,2.226-2.385,2.426v0.03c1.402,0.173,1.777,0.736,2.051,2.5c0.176,1.109,0.307,2.037,0.596,2.715h-1.59
		c-0.271-0.738-0.434-2.195-0.707-3.367c-0.176-0.75-0.668-1.285-2.633-1.285h-2.9V125.3z M330.852,119.462h3.422
		c1.592,0,2.555-0.373,2.555-1.702c0-1.272-0.691-1.706-2.527-1.706h-3.449V119.462z"/>
	<rect x="341.221" y="114.868" clip-path="url(#SVGID_2_)" fill="#034EA2" width="1.502" height="10.432"/>
	<path clip-path="url(#SVGID_2_)" fill="#034EA2" d="M355.893,122.396c-0.332,2.3-2.498,3.181-5.057,3.181
		c-3.727,0-5.445-2.618-5.445-5.492c0-2.484,1.486-5.492,5.863-5.492c2.471,0,4.363,1.246,4.496,3.021h-1.678
		c-0.26-1.358-1.49-1.836-2.934-1.836c-2.385,0-4.16,1.373-4.16,4.307s1.775,4.307,4.16,4.307c1.43,0,2.818-0.637,3.076-1.995
		H355.893z"/>
	<path clip-path="url(#SVGID_2_)" fill="#034EA2" d="M366.344,122.585h-6.398l-1.342,2.715h-1.678l5.363-10.43h1.762l5.359,10.43
		h-1.721L366.344,122.585z M365.77,121.399l-2.6-5.259l-2.615,5.259H365.77z"/>
	<polygon clip-path="url(#SVGID_2_)" fill="#034EA2" points="379.717,114.87 381.219,114.87 381.219,125.303 379.166,125.303 
		372.781,116.399 372.754,116.399 372.754,125.303 371.246,125.303 371.246,114.87 373.301,114.87 379.689,123.769 379.717,123.769 
			"/>
	<path clip-path="url(#SVGID_2_)" fill="#034EA2" d="M389.648,114.596c4.377,0,5.867,3.005,5.867,5.489s-1.49,5.492-5.867,5.492
		s-5.867-3.008-5.867-5.492S385.271,114.596,389.648,114.596 M389.648,124.392c2.527,0,4.275-1.734,4.275-4.307
		c0-2.571-1.748-4.307-4.275-4.307s-4.275,1.735-4.275,4.307C385.373,122.657,387.121,124.392,389.648,124.392"/>
	<path clip-path="url(#SVGID_2_)" fill="#034EA2" d="M403.418,114.87h4.061c4.641,0,6.213,1.936,6.213,5.344
		c0,3.206-1.951,5.089-5.996,5.089h-4.277V114.87z M404.922,124.117h2.832c3.438,0,4.346-1.995,4.346-4.03
		c0-2.705-1.211-4.031-4.709-4.031h-2.469V124.117z"/>
	<polygon clip-path="url(#SVGID_2_)" fill="#034EA2" points="416.346,114.87 424.146,114.87 424.146,116.056 417.848,116.056 
		417.848,119.347 423.744,119.347 423.744,120.532 417.848,120.532 417.848,124.117 424.322,124.117 424.322,125.303 
		416.346,125.303 	"/>
	<path clip-path="url(#SVGID_2_)" fill="#034EA2" d="M433.715,125.3h-1.502v-10.43h5.129c3.221,0,3.945,1.084,3.945,2.759
		c0,1.272-0.928,2.226-2.385,2.426v0.03c1.402,0.173,1.775,0.736,2.053,2.5c0.17,1.109,0.299,2.037,0.59,2.715h-1.586
		c-0.277-0.738-0.438-2.195-0.711-3.367c-0.176-0.75-0.664-1.285-2.629-1.285h-2.904V125.3z M433.715,119.462h3.426
		c1.588,0,2.557-0.373,2.557-1.702c0-1.272-0.693-1.706-2.529-1.706h-3.453V119.462z"/>
	<polygon clip-path="url(#SVGID_2_)" fill="#034EA2" points="444.18,114.87 451.982,114.87 451.982,116.056 445.68,116.056 
		445.68,119.347 451.576,119.347 451.576,120.532 445.68,120.532 445.68,124.117 452.154,124.117 452.154,125.303 444.18,125.303 	
		"/>
	<path clip-path="url(#SVGID_2_)" fill="#034EA2" d="M461.867,117.643c-0.146-1.46-1.635-1.864-3.322-1.864
		c-1.488,0-2.746,0.738-2.746,1.895c0,0.562,0.346,1.139,1.633,1.355l3.885,0.665c1.691,0.29,2.471,1.259,2.471,2.544
		c0,2.08-1.863,3.337-4.955,3.337c-2.961,0-4.682-1.098-4.867-3.395h1.588c0.043,1.402,1.389,2.212,3.367,2.212
		c2.166,0,3.365-0.854,3.365-1.993c0-2.893-7.99-0.276-7.99-4.641c0-2.009,1.705-3.165,4.551-3.165c2.168,0,4.467,0.65,4.611,3.05
		H461.867z"/>
	<polygon clip-path="url(#SVGID_2_)" fill="#034EA2" points="466.359,114.87 474.162,114.87 474.162,116.056 467.863,116.056 
		467.863,119.347 473.758,119.347 473.758,120.532 467.863,120.532 467.863,124.117 474.334,124.117 474.334,125.303 
		466.359,125.303 	"/>
	<path clip-path="url(#SVGID_2_)" fill="#034EA2" d="M478.205,125.3h-1.502v-10.43h5.129c3.221,0,3.945,1.084,3.945,2.759
		c0,1.272-0.928,2.226-2.385,2.426v0.03c1.402,0.173,1.775,0.736,2.051,2.5c0.172,1.109,0.305,2.037,0.592,2.715h-1.59
		c-0.271-0.738-0.434-2.195-0.707-3.367c-0.174-0.75-0.664-1.285-2.629-1.285h-2.904V125.3z M478.205,119.462h3.426
		c1.588,0,2.557-0.373,2.557-1.702c0-1.272-0.693-1.706-2.529-1.706h-3.453V119.462z"/>
	<polygon clip-path="url(#SVGID_2_)" fill="#034EA2" points="487.156,114.87 488.82,114.87 492.906,124.029 496.98,114.87 
		498.572,114.87 493.773,125.303 491.938,125.303 	"/>
	<path clip-path="url(#SVGID_2_)" fill="#034EA2" d="M507.311,122.585h-6.4l-1.344,2.715h-1.678l5.363-10.43h1.762l5.359,10.43
		h-1.717L507.311,122.585z M506.732,121.399l-2.6-5.259l-2.615,5.259H506.732z"/>
	<path clip-path="url(#SVGID_2_)" fill="#034EA2" d="M519.318,117.643c-0.145-1.46-1.633-1.864-3.324-1.864
		c-1.486,0-2.742,0.738-2.742,1.895c0,0.562,0.346,1.139,1.631,1.355l3.887,0.665c1.691,0.29,2.471,1.259,2.471,2.544
		c0,2.08-1.861,3.337-4.955,3.337c-2.961,0-4.682-1.098-4.869-3.395h1.59c0.041,1.402,1.387,2.212,3.365,2.212
		c2.166,0,3.369-0.854,3.369-1.993c0-2.893-7.994-0.276-7.994-4.641c0-2.009,1.707-3.165,4.553-3.165c2.168,0,4.467,0.65,4.609,3.05
		H519.318z"/>
	<path clip-path="url(#SVGID_2_)" fill="#034EA2" d="M36.728,98.561l9.353,19.875l-21.237-5.611l10.059-3.702L36.728,98.561z
		 M123.256,98.561l-9.351,19.875l21.235-5.611l-10.059-3.702L123.256,98.561z M130.022,86.428l-3.958,21.607l19.096-10.854
		l-10.671-1.008L130.022,86.428z M133.463,72.972l1.699,21.9l15.682-15.377l-10.571,1.757L133.463,72.972z M133.348,59.082
		l7.241,20.738l11.23-18.879l-9.773,4.405L133.348,59.082z M129.682,45.684l12.306,18.198l6.03-21.121l-8.323,6.753L129.682,45.684z
		 M122.715,33.669l16.549,14.446l0.428-21.96l-6.319,8.659L122.715,33.669z M112.905,23.834l19.694,9.733l-5.204-21.34l-3.895,9.987
		L112.905,23.834z M100.91,16.836l21.526,4.375L111.949,1.908l-1.212,10.651L100.91,16.836z M101.21,121.144l-21.216-5.686
		l9.281,19.91l1.861-10.56L101.21,121.144z M47.309,119.234l-8.781,6.148l21.967-0.004l-14.124-16.824L47.309,119.234z
		 M25.498,96.173l-10.673,1.008l19.096,10.854l-3.958-21.607L25.498,96.173z M19.713,81.252L9.14,79.495l15.684,15.377l1.699-21.9
		L19.713,81.252z M17.937,65.347l-9.771-4.405l11.23,18.879l7.242-20.738L17.937,65.347z M20.29,49.515l-8.323-6.753l6.03,21.121
		l12.305-18.198L20.29,49.515z M26.61,34.813l-6.319-8.659l0.43,21.96l16.547-14.446L26.61,34.813z M36.482,22.215l-3.895-9.987
		l-5.201,21.34l19.692-9.733L36.482,22.215z M49.247,12.56L48.035,1.908L37.55,21.211l21.525-4.375L49.247,12.56z M68.847,124.809
		l1.862,10.56l9.285-19.91l-21.22,5.686L68.847,124.809z M113.612,108.555l-14.124,16.824l21.965,0.004l-8.778-6.148
		L113.612,108.555z"/>
</g>
</svg>
