<?xml version="1.0" encoding="utf-8"?>
<!-- Generator: Adobe Illustrator 16.0.0, SVG Export Plug-In . SVG Version: 6.00 Build 0)  -->
<!DOCTYPE svg PUBLIC "-//W3C//DTD SVG 1.1//EN" "http://www.w3.org/Graphics/SVG/1.1/DTD/svg11.dtd">
<svg version="1.1" id="Layer_1" xmlns="http://www.w3.org/2000/svg" xmlns:xlink="http://www.w3.org/1999/xlink" x="0px" y="0px"
	 width="152.084px" height="134.766px" viewBox="0 0 152.084 134.766" enable-background="new 0 0 152.084 134.766"
	 xml:space="preserve">
<path opacity="0.1" fill="#034EA2" d="M56.969,111.613L75.993,70.82l19.023,40.793l-19.023-10.98L56.969,111.613z M105.575,83.552
	l19.023-10.981l-44.841-3.923l25.818,36.87V83.552z M105.575,49.393V27.428L79.757,64.299l44.841-3.923L105.575,49.393z
	 M75.993,32.315L56.969,21.332l19.023,40.795l19.023-40.795L75.993,32.315z M46.41,49.393L27.387,60.376l44.84,3.923L46.41,27.428
	V49.393z M46.41,83.552v21.965l25.817-36.87l-44.84,3.923L46.41,83.552z"/>
<g opacity="0.1">
	<g>
		<defs>
			<rect id="SVGID_1_" x="-28.635" y="-30.891" width="578.674" height="189.026"/>
		</defs>
		<clipPath id="SVGID_2_">
			<use xlink:href="#SVGID_1_"  overflow="visible"/>
		</clipPath>
		<path clip-path="url(#SVGID_2_)" fill="#034EA2" d="M32.728,98.561l9.353,19.875l-21.237-5.61l10.059-3.702L32.728,98.561z
			 M119.256,98.561l-9.351,19.875l21.235-5.61l-10.059-3.702L119.256,98.561z M126.022,86.428l-3.958,21.607l19.096-10.854
			l-10.671-1.008L126.022,86.428z M129.463,72.972l1.699,21.9l15.682-15.377l-10.571,1.757L129.463,72.972z M129.348,59.082
			l7.241,20.737l11.23-18.879l-9.773,4.405L129.348,59.082z M125.682,45.684l12.306,18.198l6.03-21.121l-8.323,6.753L125.682,45.684
			z M118.715,33.669l16.549,14.446l0.428-21.96l-6.319,8.658L118.715,33.669z M108.905,23.834l19.694,9.732l-5.204-21.34
			l-3.895,9.987L108.905,23.834z M96.91,16.836l21.526,4.375L107.949,1.908l-1.212,10.65L96.91,16.836z M97.21,121.144
			l-21.216-5.686l9.281,19.91l1.861-10.561L97.21,121.144z M43.309,119.234l-8.781,6.148l21.967-0.004l-14.124-16.824
			L43.309,119.234z M21.498,96.173l-10.673,1.008l19.096,10.854l-3.958-21.607L21.498,96.173z M15.713,81.252L5.14,79.495
			l15.684,15.377l1.699-21.9L15.713,81.252z M13.937,65.347l-9.771-4.405l11.23,18.879l7.242-20.737L13.937,65.347z M16.29,49.515
			l-8.323-6.753l6.03,21.121l12.305-18.198L16.29,49.515z M22.61,34.813l-6.319-8.659l0.43,21.961l16.547-14.446L22.61,34.813z
			 M32.482,22.215l-3.895-9.987l-5.201,21.34l19.692-9.732L32.482,22.215z M45.247,12.56L44.035,1.908L33.55,21.211l21.525-4.375
			L45.247,12.56z M64.847,124.809l1.862,10.561l9.285-19.91l-21.22,5.686L64.847,124.809z M109.612,108.555l-14.124,16.824
			l21.965,0.004l-8.778-6.148L109.612,108.555z"/>
	</g>
</g>
</svg>
